<mxfile host="Electron" modified="2024-07-01T13:54:49.203Z" agent="Mozilla/5.0 (Windows NT 10.0; Win64; x64) AppleWebKit/537.36 (KHTML, like Gecko) draw.io/24.4.8 Chrome/124.0.6367.207 Electron/30.0.6 Safari/537.36" etag="Pab4LkWH6Cu9MRpoizb2" version="24.4.8" type="device">
  <diagram name="第 1 页" id="y5i7iNILlWCHq4sH_vYi">
    <mxGraphModel dx="1018" dy="686" grid="1" gridSize="10" guides="1" tooltips="1" connect="1" arrows="1" fold="1" page="1" pageScale="1" pageWidth="827" pageHeight="1169" math="0" shadow="0">
      <root>
        <mxCell id="0" />
        <mxCell id="1" parent="0" />
        <mxCell id="sQpdOg7nBrTatM9nVIN1-2" value="Substrate Node Template" style="swimlane;" parent="1" vertex="1">
          <mxGeometry x="40" y="160" width="600" height="440" as="geometry" />
        </mxCell>
        <mxCell id="sQpdOg7nBrTatM9nVIN1-3" value="pallets" style="swimlane;" parent="sQpdOg7nBrTatM9nVIN1-2" vertex="1">
          <mxGeometry x="20" y="40" width="120" height="170" as="geometry">
            <mxRectangle x="20" y="40" width="80" height="30" as="alternateBounds" />
          </mxGeometry>
        </mxCell>
        <mxCell id="sQpdOg7nBrTatM9nVIN1-8" value="template" style="rounded=0;whiteSpace=wrap;html=1;" parent="sQpdOg7nBrTatM9nVIN1-3" vertex="1">
          <mxGeometry x="20" y="60" width="80" height="60" as="geometry" />
        </mxCell>
        <mxCell id="sQpdOg7nBrTatM9nVIN1-11" value="runtime" style="swimlane;" parent="sQpdOg7nBrTatM9nVIN1-2" vertex="1">
          <mxGeometry x="20" y="230" width="120" height="190" as="geometry" />
        </mxCell>
        <mxCell id="sQpdOg7nBrTatM9nVIN1-12" value="lib.rs" style="rounded=0;whiteSpace=wrap;html=1;" parent="sQpdOg7nBrTatM9nVIN1-11" vertex="1">
          <mxGeometry x="20" y="80" width="80" height="60" as="geometry" />
        </mxCell>
        <mxCell id="sQpdOg7nBrTatM9nVIN1-13" value="node" style="swimlane;" parent="sQpdOg7nBrTatM9nVIN1-2" vertex="1">
          <mxGeometry x="160" y="40" width="420" height="380" as="geometry">
            <mxRectangle x="20" y="40" width="80" height="30" as="alternateBounds" />
          </mxGeometry>
        </mxCell>
        <mxCell id="sQpdOg7nBrTatM9nVIN1-22" value="" style="rounded=1;whiteSpace=wrap;html=1;fillStyle=hatch;fillColor=none;dashed=1;" parent="sQpdOg7nBrTatM9nVIN1-13" vertex="1">
          <mxGeometry x="210" y="50" width="200" height="160" as="geometry" />
        </mxCell>
        <mxCell id="sQpdOg7nBrTatM9nVIN1-14" value="bench-marking.rs" style="rounded=0;whiteSpace=wrap;html=1;" parent="sQpdOg7nBrTatM9nVIN1-13" vertex="1">
          <mxGeometry x="20" y="60" width="80" height="120" as="geometry" />
        </mxCell>
        <mxCell id="sQpdOg7nBrTatM9nVIN1-15" value="chain_spec.rs" style="rounded=0;whiteSpace=wrap;html=1;" parent="sQpdOg7nBrTatM9nVIN1-13" vertex="1">
          <mxGeometry x="120" y="60" width="80" height="120" as="geometry" />
        </mxCell>
        <mxCell id="sQpdOg7nBrTatM9nVIN1-16" value="cli.rs" style="rounded=0;whiteSpace=wrap;html=1;" parent="sQpdOg7nBrTatM9nVIN1-13" vertex="1">
          <mxGeometry x="220" y="60" width="80" height="120" as="geometry" />
        </mxCell>
        <mxCell id="sQpdOg7nBrTatM9nVIN1-17" value="command.rs" style="rounded=0;whiteSpace=wrap;html=1;" parent="sQpdOg7nBrTatM9nVIN1-13" vertex="1">
          <mxGeometry x="320" y="60" width="80" height="120" as="geometry" />
        </mxCell>
        <mxCell id="sQpdOg7nBrTatM9nVIN1-18" value="lib.rs" style="rounded=0;whiteSpace=wrap;html=1;" parent="sQpdOg7nBrTatM9nVIN1-13" vertex="1">
          <mxGeometry x="20" y="240" width="80" height="120" as="geometry" />
        </mxCell>
        <mxCell id="sQpdOg7nBrTatM9nVIN1-19" value="&amp;nbsp;main.rs" style="rounded=0;whiteSpace=wrap;html=1;" parent="sQpdOg7nBrTatM9nVIN1-13" vertex="1">
          <mxGeometry x="120" y="240" width="80" height="120" as="geometry" />
        </mxCell>
        <mxCell id="sQpdOg7nBrTatM9nVIN1-20" value="rpc.rs" style="rounded=0;whiteSpace=wrap;html=1;" parent="sQpdOg7nBrTatM9nVIN1-13" vertex="1">
          <mxGeometry x="220" y="240" width="80" height="120" as="geometry" />
        </mxCell>
        <mxCell id="sQpdOg7nBrTatM9nVIN1-21" value="service.rs" style="rounded=0;whiteSpace=wrap;html=1;" parent="sQpdOg7nBrTatM9nVIN1-13" vertex="1">
          <mxGeometry x="320" y="240" width="80" height="120" as="geometry" />
        </mxCell>
        <mxCell id="sQpdOg7nBrTatM9nVIN1-23" value="" style="rounded=1;whiteSpace=wrap;html=1;fillStyle=hatch;fillColor=none;dashed=1;" parent="sQpdOg7nBrTatM9nVIN1-13" vertex="1">
          <mxGeometry x="10" y="210" width="200" height="160" as="geometry" />
        </mxCell>
        <mxCell id="sQpdOg7nBrTatM9nVIN1-24" value="接收并解析命令行参数" style="text;html=1;align=center;verticalAlign=middle;resizable=0;points=[];autosize=1;strokeColor=none;fillColor=none;" parent="sQpdOg7nBrTatM9nVIN1-13" vertex="1">
          <mxGeometry x="240" y="180" width="140" height="30" as="geometry" />
        </mxCell>
        <mxCell id="sQpdOg7nBrTatM9nVIN1-25" value="向外暴露模块，调用启动函数" style="text;html=1;align=center;verticalAlign=middle;resizable=0;points=[];autosize=1;strokeColor=none;fillColor=none;" parent="sQpdOg7nBrTatM9nVIN1-13" vertex="1">
          <mxGeometry x="20" y="210" width="180" height="30" as="geometry" />
        </mxCell>
      </root>
    </mxGraphModel>
  </diagram>
</mxfile>
